<?xml version="1.0" encoding="UTF-8"?>
<!DOCTYPE svg PUBLIC "-//W3C//DTD SVG 1.1//EN" "http://www.w3.org/Graphics/SVG/1.1/DTD/svg11.dtd">
<!-- Creator: CorelDRAW X7 -->
<svg xmlns="http://www.w3.org/2000/svg" xml:space="preserve" width="200px" height="100px" version="1.1" style="shape-rendering:geometricPrecision; text-rendering:geometricPrecision; image-rendering:optimizeQuality; fill-rule:evenodd; clip-rule:evenodd"
viewBox="0 0 30 15"
 xmlns:xlink="http://www.w3.org/1999/xlink">
 <defs>
  <style type="text/css">
   <![CDATA[
    .fil1 {fill:none}
    .fil0 {fill:#F5B2B6}
   ]]>
  </style>
 </defs>
 <g id="Layer_x0020_1">
  <metadata id="CorelCorpID_0Corel-Layer"/>
  <path class="fil0" d="M24 12c0,0 0,0 0,0 0,0 1,1 1,1 0,0 0,1 1,1 1,0 1,-1 1,-1 0,-1 1,0 1,-2 0,0 0,-1 0,-1 0,-1 2,-1 1,-2 -1,-2 -1,-2 -2,-3 0,-1 1,-1 1,-2 -1,0 -2,0 -2,0 -1,1 -2,1 -2,2 -1,-2 -1,-2 -3,-2 -1,0 -1,0 -2,0l-8 0c-2,0 -3,0 -4,2 0,-2 -2,-3 -3,-3 -1,-1 -1,-1 -2,0 -1,0 0,1 0,2 0,1 -1,2 -1,2 -1,1 0,2 0,3 1,2 0,2 1,3 0,0 0,0 0,0 0,1 0,0 0,1 0,0 1,0 1,0 1,0 2,-1 2,-1 1,-1 2,-1 2,-2 0,1 0,2 2,3 1,1 2,1 3,1 1,0 2,0 2,0l3 0c1,0 5,0 5,-1 1,0 1,0 1,-1 1,0 1,-1 1,-1 0,0 0,0 0,1z"/>
  <rect class="fil1" width="29.8169" height="14.9084"/>
 </g>
</svg>
