<?xml version="1.0" encoding="UTF-8"?>
<!DOCTYPE svg PUBLIC "-//W3C//DTD SVG 1.1//EN" "http://www.w3.org/Graphics/SVG/1.1/DTD/svg11.dtd">
<!-- Creator: CorelDRAW X7 -->
<svg xmlns="http://www.w3.org/2000/svg" xml:space="preserve" width="200px" height="100px" version="1.1" style="shape-rendering:geometricPrecision; text-rendering:geometricPrecision; image-rendering:optimizeQuality; fill-rule:evenodd; clip-rule:evenodd"
viewBox="0 0 30 15"
 xmlns:xlink="http://www.w3.org/1999/xlink">
 <defs>
  <style type="text/css">
   <![CDATA[
    .fil0 {fill:#FEFEFE}
    .fil1 {fill:black}
   ]]>
  </style>
 </defs>
 <g id="Layer_x0020_1">
  <metadata id="CorelCorpID_0Corel-Layer"/>
  <path class="fil0" d="M0 0l30 0 0 15 -30 0 0 -15zm24 12c0,0 0,0 0,0 0,0 1,1 1,1 0,0 0,1 1,1 1,0 1,-1 1,-1 0,-1 1,0 1,-2 0,0 0,-1 0,-1 0,-1 2,-1 1,-2 -1,-2 -1,-2 -2,-3 0,-1 1,-1 1,-2 -1,0 -2,0 -2,0 -1,1 -2,1 -2,2 -1,-2 -1,-2 -3,-2 -1,0 -1,0 -2,0l-8 0c-2,0 -3,0 -4,2 0,-2 -2,-3 -3,-3 -1,-1 -1,-1 -2,0 -1,0 0,1 0,2 0,1 -1,2 -1,2 -1,1 0,2 0,3 1,2 0,2 1,3 0,0 0,0 0,0 0,1 0,0 0,1 0,0 1,0 1,0 1,0 2,-1 2,-1 1,-1 2,-1 2,-2 0,1 0,2 2,3 1,1 2,1 3,1 1,0 2,0 2,0l3 0c1,0 5,0 5,-1 1,0 1,0 1,-1 1,0 1,-1 1,-1 0,0 0,0 0,1z"/>
  <path class="fil1" d="M4 5c0,0 0,0 0,0 0,0 0,0 0,0 0,0 2,1 2,1 2,0 1,1 1,1 0,0 -3,1 -3,1 -1,0 -1,0 -2,1 1,0 2,0 3,0l0 -1c-1,1 -1,1 -1,1 -1,0 -1,0 -1,0 1,-1 2,-1 3,-1 1,-1 1,-1 1,-1 0,1 0,1 -1,1 -1,1 -1,1 -2,1l0 1c1,-1 1,-1 2,-1 0,-1 1,-1 1,-1l0 0c0,1 0,2 -1,2 0,0 -3,3 -3,2 0,0 0,0 0,-1 0,0 -1,0 -1,0 0,-1 0,-1 0,-2 0,-1 -1,-2 -1,-2 0,-1 2,-1 1,-4 0,-1 0,-2 0,-2 1,0 1,0 2,0 0,1 1,1 1,1 1,1 2,1 2,3 1,0 0,1 0,1 0,0 0,0 0,0 0,0 0,-1 0,-1 0,0 -1,0 -1,0 0,-1 0,-1 -1,-1l2 2c-1,-1 -4,-1 -4,-1 0,0 0,1 1,1 0,0 1,0 1,0 0,0 -1,-1 -2,-1l1 0zm5 -2c1,-1 3,-1 4,-1 3,0 5,0 7,0 1,0 2,0 2,0 3,1 2,4 2,6 0,1 0,2 -1,3 0,1 -1,1 -2,1 -3,1 -7,1 -10,0 0,1 -1,1 -2,0 -2,-1 -1,-3 -1,-5l0 -2c0,-1 0,-2 1,-2zm15 8c0,0 1,0 1,0 0,1 0,1 0,1 1,1 1,1 1,1 1,0 1,-1 1,-1 1,0 1,0 1,-2 0,0 0,0 0,-1 0,0 2,-1 1,-2 0,-2 -1,-2 -1,-3 0,-1 0,-1 0,-1 0,-1 -1,-1 -2,-1 -1,1 -1,2 -2,2 -1,-2 -1,-2 -3,-2 -1,0 -1,0 -2,0l-8 0c-2,0 -3,0 -3,2 -1,-1 -3,-3 -4,-3 -1,0 -1,0 -2,0 0,0 0,1 0,2 0,2 0,2 -1,2 -1,2 0,2 1,4 0,1 -1,1 0,2 0,0 0,0 0,0 1,1 0,1 1,1 0,1 0,1 1,0 1,0 1,0 2,-1 1,-1 1,-1 1,-2 1,1 0,3 2,3 1,1 3,1 4,1 0,0 1,0 2,0l3 0c1,0 4,0 5,0 0,-1 0,-1 1,-1 0,-1 0,-1 0,-2 0,1 0,1 0,1zm2 -7c0,0 0,0 0,0 0,0 0,1 0,1 0,0 0,-1 0,-1 0,0 -1,1 -2,1l0 0c0,0 0,-2 2,-2 1,-1 1,-1 2,0 0,0 -1,1 0,2 0,0 0,0 1,2 1,1 -1,1 -1,3 0,1 0,1 -1,2 0,0 0,0 0,0 0,1 0,1 -1,1 -1,-1 0,0 -2,-3 0,0 0,-1 0,-1l0 0c0,0 1,0 1,1l1 0c0,1 0,0 -1,0 0,0 0,0 0,0 0,1 2,1 2,0 -1,0 0,0 -1,0 -1,-1 -2,-2 -2,-2 1,0 1,-1 2,-1 0,0 0,0 0,0l0 1c0,0 0,0 0,0 1,-1 0,-1 -1,-1l0 1c-1,0 -1,0 -1,0 0,0 0,-1 0,-1 0,-1 0,-1 0,-1 0,-1 1,-1 2,-2z"/>
 </g>
</svg>
